<?xml version="1.0" encoding="utf-8"?>
<!-- Generator: Adobe Illustrator 19.2.1, SVG Export Plug-In . SVG Version: 6.00 Build 0)  -->
<svg version="1.1" id="Layer_1" xmlns="http://www.w3.org/2000/svg" xmlns:xlink="http://www.w3.org/1999/xlink" x="0px" y="0px"
	 viewBox="0 0 612 420" style="enable-background:new 0 0 612 420;" xml:space="preserve">
<style type="text/css">
	.st0{fill:url(#SVGID_1_);}
	.st1{fill:url(#SVGID_2_);}
	.st2{fill:url(#SVGID_3_);}
	.st3{fill:url(#SVGID_4_);}
	.st4{fill:url(#SVGID_5_);}
	.st5{fill:url(#SVGID_6_);}
	.st6{fill:url(#SVGID_7_);}
	.st7{fill:url(#SVGID_8_);}
	.st8{fill:url(#SVGID_9_);}
	.st9{fill:url(#SVGID_10_);}
	.st10{fill:url(#SVGID_11_);}
	.st11{fill:url(#SVGID_12_);}
	.st12{fill:url(#SVGID_13_);}
	.st13{fill:url(#SVGID_14_);}
	.st14{fill:url(#SVGID_15_);}
	.st15{fill:url(#SVGID_16_);}
</style>
<linearGradient id="SVGID_1_" gradientUnits="userSpaceOnUse" x1="156.3125" y1="-43.3805" x2="390.9016" y2="-43.3805" gradientTransform="matrix(4.489659e-11 -1 1 4.489659e-11 92.103 483.8969)">
	<stop  offset="0" style="stop-color:#3D2F30"/>
	<stop  offset="0.2861" style="stop-color:#E5374F"/>
	<stop  offset="0.6975" style="stop-color:#E0013F"/>
	<stop  offset="1" style="stop-color:#3D2F30"/>
</linearGradient>
<path class="st0" d="M21,93c30.9,0,31.5,234.6,63.6,234.6h-8.1C44.4,327.6,43.8,93,12.9,93H21z"/>
<linearGradient id="SVGID_2_" gradientUnits="userSpaceOnUse" x1="156.3125" y1="89.9187" x2="390.9016" y2="89.9187" gradientTransform="matrix(4.489659e-11 -1 1 4.489659e-11 92.103 483.8969)">
	<stop  offset="0" style="stop-color:#3E3F3B"/>
	<stop  offset="0.4528" style="stop-color:#EAF21C"/>
	<stop  offset="0.5266" style="stop-color:#FCCC12"/>
	<stop  offset="1" style="stop-color:#3E3F3B"/>
</linearGradient>
<path class="st1" d="M154.3,93c30.9,0,31.5,234.6,63.6,234.6h-8.1c-32.1,0-32.7-234.6-63.6-234.6H154.3z"/>
<linearGradient id="SVGID_3_" gradientUnits="userSpaceOnUse" x1="156.3125" y1="224.9999" x2="390.9016" y2="224.9999" gradientTransform="matrix(4.489659e-11 -1 1 4.489659e-11 92.103 483.8969)">
	<stop  offset="0" style="stop-color:#373B32"/>
	<stop  offset="0.3161" style="stop-color:#1BA08A"/>
	<stop  offset="0.7065" style="stop-color:#75BF22"/>
	<stop  offset="1" style="stop-color:#373B32"/>
</linearGradient>
<path class="st2" d="M289.4,93c30.9,0,31.5,234.6,63.6,234.6h-8.1c-32.1,0-32.7-234.6-63.6-234.6H289.4z"/>
<linearGradient id="SVGID_4_" gradientUnits="userSpaceOnUse" x1="156.3125" y1="360.081" x2="390.9016" y2="360.081" gradientTransform="matrix(4.489659e-11 -1 1 4.489659e-11 92.103 483.8969)">
	<stop  offset="0" style="stop-color:#323238"/>
	<stop  offset="0.2985" style="stop-color:#45489E"/>
	<stop  offset="0.7084" style="stop-color:#3AB2C6"/>
	<stop  offset="1" style="stop-color:#323238"/>
</linearGradient>
<path class="st3" d="M424.5,93c30.9,0,31.5,234.6,63.6,234.6h-8.1c-32.1,0-32.7-234.6-63.6-234.6H424.5z"/>
<linearGradient id="SVGID_5_" gradientUnits="userSpaceOnUse" x1="156.3125" y1="-7.5327" x2="390.9016" y2="-7.5327" gradientTransform="matrix(4.489659e-11 -1 1 4.489659e-11 92.103 483.8969)">
	<stop  offset="0" style="stop-color:#3D2F30"/>
	<stop  offset="0.3166" style="stop-color:#E5374F"/>
	<stop  offset="0.7174" style="stop-color:#E0013F"/>
	<stop  offset="1" style="stop-color:#3D2F30"/>
</linearGradient>
<path class="st4" d="M56.9,93c30.9,0,31.5,234.6,63.6,234.6h-8.1C80.2,327.6,79.6,93,48.7,93H56.9z"/>
<linearGradient id="SVGID_6_" gradientUnits="userSpaceOnUse" x1="156.3125" y1="63.8869" x2="390.9016" y2="63.8869" gradientTransform="matrix(4.489659e-11 -1 1 4.489659e-11 92.103 483.8969)">
	<stop  offset="4.336735e-02" style="stop-color:#E5374F"/>
	<stop  offset="0.9168" style="stop-color:#FCCC12"/>
</linearGradient>
<path class="st5" d="M128.3,327.6c30.9,0,31.5-234.6,63.6-234.6h-8.1c-32.1,0-32.7,234.6-63.6,234.6H128.3z"/>
<linearGradient id="SVGID_7_" gradientUnits="userSpaceOnUse" x1="156.3125" y1="202.6904" x2="390.9016" y2="202.6904" gradientTransform="matrix(4.489659e-11 -1 1 4.489659e-11 92.103 483.8969)">
	<stop  offset="7.672991e-03" style="stop-color:#EAF21C;stop-opacity:0.8"/>
	<stop  offset="1" style="stop-color:#A9D639"/>
</linearGradient>
<path class="st6" d="M267.1,327.6C298,327.6,298.6,93,330.6,93h-8.1c-32.1,0-32.7,234.6-63.6,234.6H267.1z"/>
<linearGradient id="SVGID_8_" gradientUnits="userSpaceOnUse" x1="156.3125" y1="130.7152" x2="390.9016" y2="130.7152" gradientTransform="matrix(4.489659e-11 -1 1 4.489659e-11 92.103 483.8969)">
	<stop  offset="0" style="stop-color:#3E3F3B"/>
	<stop  offset="0.4209" style="stop-color:#EAF21C"/>
	<stop  offset="0.5092" style="stop-color:#FCCC12"/>
	<stop  offset="1" style="stop-color:#3F3F37"/>
</linearGradient>
<path class="st7" d="M195.1,93c30.9,0,31.5,234.6,63.6,234.6h-8.1C218.5,327.6,217.9,93,187,93H195.1z"/>
<linearGradient id="SVGID_9_" gradientUnits="userSpaceOnUse" x1="156.3125" y1="268.9631" x2="390.9016" y2="268.9631" gradientTransform="matrix(4.489659e-11 -1 1 4.489659e-11 92.103 483.8969)">
	<stop  offset="0" style="stop-color:#373B32"/>
	<stop  offset="0.2909" style="stop-color:#1BA08A"/>
	<stop  offset="0.7635" style="stop-color:#75BF22"/>
	<stop  offset="1" style="stop-color:#373B32"/>
</linearGradient>
<path class="st8" d="M333.4,93c30.9,0,31.5,234.6,63.6,234.6h-8.1c-32.1,0-32.7-234.6-63.6-234.6H333.4z"/>
<linearGradient id="SVGID_10_" gradientUnits="userSpaceOnUse" x1="156.3125" y1="336.9324" x2="390.9016" y2="336.9324" gradientTransform="matrix(4.489659e-11 -1 1 4.489659e-11 92.103 483.8969)">
	<stop  offset="0.1788" style="stop-color:#1BA08A"/>
	<stop  offset="1" style="stop-color:#3AB2C6"/>
</linearGradient>
<path class="st9" d="M401.3,327.6c30.9,0,31.5-234.6,63.6-234.6h-8.1c-32.1,0-32.7,234.6-63.6,234.6H401.3z"/>
<linearGradient id="SVGID_11_" gradientUnits="userSpaceOnUse" x1="156.3125" y1="400.9076" x2="390.9016" y2="400.9076" gradientTransform="matrix(4.489659e-11 -1 1 4.489659e-11 92.103 483.8969)">
	<stop  offset="1.159917e-02" style="stop-color:#323238"/>
	<stop  offset="0.2629" style="stop-color:#45489E"/>
	<stop  offset="0.7187" style="stop-color:#3AB2C6"/>
	<stop  offset="1" style="stop-color:#323238"/>
</linearGradient>
<path class="st10" d="M465.3,93c30.9,0,31.5,234.6,63.6,234.6h-8.1c-32.1,0-32.7-234.6-63.6-234.6H465.3z"/>
<linearGradient id="SVGID_12_" gradientUnits="userSpaceOnUse" x1="156.3125" y1="471.1744" x2="390.9016" y2="471.1744" gradientTransform="matrix(4.489659e-11 -1 1 4.489659e-11 92.103 483.8969)">
	<stop  offset="0.1763" style="stop-color:#45489E"/>
	<stop  offset="1" style="stop-color:#4A1581"/>
</linearGradient>
<path class="st11" d="M535.6,327.6c30.9,0,31.5-234.6,63.6-234.6H591c-32.1,0-32.7,234.6-63.6,234.6H535.6z"/>
<linearGradient id="SVGID_13_" gradientUnits="userSpaceOnUse" x1="156.3125" y1="157.1546" x2="390.9016" y2="157.1546" gradientTransform="matrix(4.489659e-11 -1 1 4.489659e-11 92.103 483.8969)">
	<stop  offset="1.983020e-02" style="stop-color:#EAF21C;stop-opacity:0.8"/>
	<stop  offset="1" style="stop-color:#A9D639"/>
</linearGradient>
<path class="st12" d="M221.5,327.6C252.4,327.6,253,93,285.1,93H277c-32.1,0-32.7,234.6-63.6,234.6H221.5z"/>
<linearGradient id="SVGID_14_" gradientUnits="userSpaceOnUse" x1="156.3125" y1="291.8784" x2="390.9016" y2="291.8784" gradientTransform="matrix(4.489659e-11 -1 1 4.489659e-11 92.103 483.8969)">
	<stop  offset="0.1788" style="stop-color:#1BA08A"/>
	<stop  offset="1" style="stop-color:#3AB2C6"/>
</linearGradient>
<path class="st13" d="M356.3,327.6c30.9,0,31.5-234.6,63.6-234.6h-8.1c-32.1,0-32.7,234.6-63.6,234.6H356.3z"/>
<linearGradient id="SVGID_15_" gradientUnits="userSpaceOnUse" x1="156.3125" y1="427.5689" x2="390.9016" y2="427.5689" gradientTransform="matrix(4.489659e-11 -1 1 4.489659e-11 92.103 483.8969)">
	<stop  offset="0.1763" style="stop-color:#45489E"/>
	<stop  offset="1" style="stop-color:#4A1581"/>
</linearGradient>
<path class="st14" d="M492,327.6c30.9,0,31.5-234.6,63.6-234.6h-8.1c-32.1,0-32.7,234.6-63.6,234.6H492z"/>
<linearGradient id="SVGID_16_" gradientUnits="userSpaceOnUse" x1="156.3125" y1="22.4308" x2="390.9016" y2="22.4308" gradientTransform="matrix(4.489659e-11 -1 1 4.489659e-11 92.103 483.8969)">
	<stop  offset="0.1906" style="stop-color:#E5374F"/>
	<stop  offset="0.9168" style="stop-color:#FCCC12"/>
</linearGradient>
<path class="st15" d="M86.8,327.6c30.9,0,31.5-234.6,63.6-234.6h-8.1c-32.1,0-32.7,234.6-63.6,234.6H86.8z"/>
</svg>
