<?xml version="1.0" encoding="utf-8"?>
<!-- Generator: Adobe Illustrator 19.2.1, SVG Export Plug-In . SVG Version: 6.00 Build 0)  -->
<svg version="1.1" id="Layer_1" xmlns="http://www.w3.org/2000/svg" xmlns:xlink="http://www.w3.org/1999/xlink" x="0px" y="0px"
	 viewBox="0 0 683 108" style="enable-background:new 0 0 683 108;" xml:space="preserve">
<style type="text/css">
	.st0{fill:#1E73B2;}
	.st1{font-family:'Helvetica-LightOblique';}
	.st2{font-size:53.1177px;}
	.st3{fill:url(#SVGID_1_);}
	.st4{fill:url(#SVGID_2_);}
	.st5{fill:url(#SVGID_3_);}
	.st6{fill:url(#SVGID_4_);}
	.st7{fill:url(#SVGID_5_);}
	.st8{fill:url(#SVGID_6_);}
	.st9{fill:url(#SVGID_7_);}
	.st10{fill:url(#SVGID_8_);}
	.st11{fill:url(#SVGID_9_);}
	.st12{fill:url(#SVGID_10_);}
	.st13{fill:url(#SVGID_11_);}
	.st14{fill:url(#SVGID_12_);}
	.st15{fill:url(#SVGID_13_);}
	.st16{fill:url(#SVGID_14_);}
	.st17{fill:url(#SVGID_15_);}
	.st18{fill:url(#SVGID_16_);}
</style>
<text transform="matrix(0.5933 0 0 1 129.2109 71.6035)" class="st0 st1 st2">RAINBOW HEALTH INTERNATIONAL</text>
<linearGradient id="SVGID_1_" gradientUnits="userSpaceOnUse" x1="597.9194" y1="-55.8961" x2="648.5463" y2="-55.8961" gradientTransform="matrix(4.489659e-11 -1 1 4.489659e-11 80.0024 675.9976)">
	<stop  offset="0" style="stop-color:#3D2F30"/>
	<stop  offset="0.2861" style="stop-color:#E5374F"/>
	<stop  offset="0.6975" style="stop-color:#E0013F"/>
	<stop  offset="1" style="stop-color:#3D2F30"/>
</linearGradient>
<path class="st3" d="M18.9,27.5c5.8,0,5.9,50.6,11.9,50.6h-1.5c-6,0-6.1-50.6-11.9-50.6H18.9z"/>
<linearGradient id="SVGID_2_" gradientUnits="userSpaceOnUse" x1="597.9194" y1="-30.9621" x2="648.5463" y2="-30.9621" gradientTransform="matrix(4.489659e-11 -1 1 4.489659e-11 80.0024 675.9976)">
	<stop  offset="0" style="stop-color:#3E3F3B"/>
	<stop  offset="0.4528" style="stop-color:#EAF21C"/>
	<stop  offset="0.5266" style="stop-color:#FCCC12"/>
	<stop  offset="1" style="stop-color:#3E3F3B"/>
</linearGradient>
<path class="st4" d="M43.9,27.5c5.8,0,5.9,50.6,11.9,50.6h-1.5c-6,0-6.1-50.6-11.9-50.6H43.9z"/>
<linearGradient id="SVGID_3_" gradientUnits="userSpaceOnUse" x1="597.9194" y1="-5.6948" x2="648.5463" y2="-5.6948" gradientTransform="matrix(4.489659e-11 -1 1 4.489659e-11 80.0024 675.9976)">
	<stop  offset="0" style="stop-color:#373B32"/>
	<stop  offset="0.3161" style="stop-color:#1BA08A"/>
	<stop  offset="0.7065" style="stop-color:#75BF22"/>
	<stop  offset="1" style="stop-color:#373B32"/>
</linearGradient>
<path class="st5" d="M69.1,27.5c5.8,0,5.9,50.6,11.9,50.6h-1.5c-6,0-6.1-50.6-11.9-50.6H69.1z"/>
<linearGradient id="SVGID_4_" gradientUnits="userSpaceOnUse" x1="597.9194" y1="19.5725" x2="648.5463" y2="19.5725" gradientTransform="matrix(4.489659e-11 -1 1 4.489659e-11 80.0024 675.9976)">
	<stop  offset="0" style="stop-color:#323238"/>
	<stop  offset="0.2985" style="stop-color:#45489E"/>
	<stop  offset="0.7084" style="stop-color:#3AB2C6"/>
	<stop  offset="1" style="stop-color:#323238"/>
</linearGradient>
<path class="st6" d="M94.4,27.5c5.8,0,5.9,50.6,11.9,50.6h-1.5c-6,0-6.1-50.6-11.9-50.6H94.4z"/>
<linearGradient id="SVGID_5_" gradientUnits="userSpaceOnUse" x1="597.9194" y1="-49.1907" x2="648.5463" y2="-49.1907" gradientTransform="matrix(4.489659e-11 -1 1 4.489659e-11 80.0024 675.9976)">
	<stop  offset="0" style="stop-color:#3D2F30"/>
	<stop  offset="0.3166" style="stop-color:#E5374F"/>
	<stop  offset="0.7174" style="stop-color:#E0013F"/>
	<stop  offset="1" style="stop-color:#3D2F30"/>
</linearGradient>
<path class="st7" d="M25.6,27.5c5.8,0,5.9,50.6,11.9,50.6H36c-6,0-6.1-50.6-11.9-50.6H25.6z"/>
<linearGradient id="SVGID_6_" gradientUnits="userSpaceOnUse" x1="597.9194" y1="-35.8314" x2="648.5463" y2="-35.8314" gradientTransform="matrix(4.489659e-11 -1 1 4.489659e-11 80.0024 675.9976)">
	<stop  offset="4.336735e-02" style="stop-color:#E5374F"/>
	<stop  offset="0.9168" style="stop-color:#FCCC12"/>
</linearGradient>
<path class="st8" d="M39,78.1c5.8,0,5.9-50.6,11.9-50.6h-1.5c-6,0-6.1,50.6-11.9,50.6H39z"/>
<linearGradient id="SVGID_7_" gradientUnits="userSpaceOnUse" x1="597.9194" y1="-9.8678" x2="648.5463" y2="-9.8678" gradientTransform="matrix(4.489659e-11 -1 1 4.489659e-11 80.0024 675.9976)">
	<stop  offset="7.672991e-03" style="stop-color:#EAF21C;stop-opacity:0.8"/>
	<stop  offset="1" style="stop-color:#A9D639"/>
</linearGradient>
<path class="st9" d="M65,78.1c5.8,0,5.9-50.6,11.9-50.6h-1.5c-6,0-6.1,50.6-11.9,50.6H65z"/>
<linearGradient id="SVGID_8_" gradientUnits="userSpaceOnUse" x1="597.9194" y1="-23.331" x2="648.5463" y2="-23.331" gradientTransform="matrix(4.489659e-11 -1 1 4.489659e-11 80.0024 675.9976)">
	<stop  offset="0" style="stop-color:#3E3F3B"/>
	<stop  offset="0.4209" style="stop-color:#EAF21C"/>
	<stop  offset="0.5092" style="stop-color:#FCCC12"/>
	<stop  offset="1" style="stop-color:#3F3F37"/>
</linearGradient>
<path class="st10" d="M51.5,27.5c5.8,0,5.9,50.6,11.9,50.6h-1.5c-6,0-6.1-50.6-11.9-50.6H51.5z"/>
<linearGradient id="SVGID_9_" gradientUnits="userSpaceOnUse" x1="597.9194" y1="2.5286" x2="648.5463" y2="2.5286" gradientTransform="matrix(4.489659e-11 -1 1 4.489659e-11 80.0024 675.9976)">
	<stop  offset="0" style="stop-color:#373B32"/>
	<stop  offset="0.2909" style="stop-color:#1BA08A"/>
	<stop  offset="0.7635" style="stop-color:#75BF22"/>
	<stop  offset="1" style="stop-color:#373B32"/>
</linearGradient>
<path class="st11" d="M77.3,27.5c5.8,0,5.9,50.6,11.9,50.6h-1.5c-6,0-6.1-50.6-11.9-50.6H77.3z"/>
<linearGradient id="SVGID_10_" gradientUnits="userSpaceOnUse" x1="597.9194" y1="15.2425" x2="648.5463" y2="15.2425" gradientTransform="matrix(4.489659e-11 -1 1 4.489659e-11 80.0024 675.9976)">
	<stop  offset="0.1788" style="stop-color:#1BA08A"/>
	<stop  offset="1" style="stop-color:#3AB2C6"/>
</linearGradient>
<path class="st12" d="M90.1,78.1c5.8,0,5.9-50.6,11.9-50.6h-1.5c-6,0-6.1,50.6-11.9,50.6H90.1z"/>
<linearGradient id="SVGID_11_" gradientUnits="userSpaceOnUse" x1="597.9194" y1="27.2092" x2="648.5463" y2="27.2092" gradientTransform="matrix(4.489659e-11 -1 1 4.489659e-11 80.0024 675.9976)">
	<stop  offset="1.159917e-02" style="stop-color:#323238"/>
	<stop  offset="0.2629" style="stop-color:#45489E"/>
	<stop  offset="0.7187" style="stop-color:#3AB2C6"/>
	<stop  offset="1" style="stop-color:#323238"/>
</linearGradient>
<path class="st13" d="M102,27.5c5.8,0,5.9,50.6,11.9,50.6h-1.5c-6,0-6.1-50.6-11.9-50.6H102z"/>
<linearGradient id="SVGID_12_" gradientUnits="userSpaceOnUse" x1="597.9194" y1="40.3528" x2="648.5463" y2="40.3528" gradientTransform="matrix(4.489659e-11 -1 1 4.489659e-11 80.0024 675.9976)">
	<stop  offset="0.1763" style="stop-color:#45489E"/>
	<stop  offset="1" style="stop-color:#4A1581"/>
</linearGradient>
<path class="st14" d="M115.2,78.1c5.8,0,5.9-50.6,11.9-50.6h-1.5c-6,0-6.1,50.6-11.9,50.6H115.2z"/>
<linearGradient id="SVGID_13_" gradientUnits="userSpaceOnUse" x1="597.9194" y1="-18.3854" x2="648.5463" y2="-18.3854" gradientTransform="matrix(4.489659e-11 -1 1 4.489659e-11 80.0024 675.9976)">
	<stop  offset="1.983020e-02" style="stop-color:#EAF21C;stop-opacity:0.8"/>
	<stop  offset="1" style="stop-color:#A9D639"/>
</linearGradient>
<path class="st15" d="M56.4,78.1c5.8,0,5.9-50.6,11.9-50.6h-1.5c-6,0-6.1,50.6-11.9,50.6H56.4z"/>
<linearGradient id="SVGID_14_" gradientUnits="userSpaceOnUse" x1="597.9194" y1="6.1617" x2="648.5463" y2="6.1617" gradientTransform="matrix(4.489659e-11 -1 1 4.489659e-11 80.0024 675.9976)">
	<stop  offset="0.1788" style="stop-color:#1BA08A"/>
	<stop  offset="1" style="stop-color:#3AB2C6"/>
</linearGradient>
<path class="st16" d="M81,78.1c5.8,0,5.9-50.6,11.9-50.6h-1.5c-6,0-6.1,50.6-11.9,50.6H81z"/>
<linearGradient id="SVGID_15_" gradientUnits="userSpaceOnUse" x1="597.9194" y1="32.1963" x2="648.5463" y2="32.1963" gradientTransform="matrix(4.489659e-11 -1 1 4.489659e-11 80.0024 675.9976)">
	<stop  offset="0.1763" style="stop-color:#45489E"/>
	<stop  offset="1" style="stop-color:#4A1581"/>
</linearGradient>
<path class="st17" d="M107,78.1c5.8,0,5.9-50.6,11.9-50.6h-1.5c-6,0-6.1,50.6-11.9,50.6H107z"/>
<linearGradient id="SVGID_16_" gradientUnits="userSpaceOnUse" x1="597.9194" y1="-43.5859" x2="648.5463" y2="-43.5859" gradientTransform="matrix(4.489659e-11 -1 1 4.489659e-11 80.0024 675.9976)">
	<stop  offset="0.1906" style="stop-color:#E5374F"/>
	<stop  offset="0.9168" style="stop-color:#FCCC12"/>
</linearGradient>
<path class="st18" d="M31.2,78.1c5.8,0,5.9-50.6,11.9-50.6h-1.5c-6,0-6.1,50.6-11.9,50.6H31.2z"/>
</svg>
